<svg xmlns="http://www.w3.org/2000/svg" version="1.1" xmlns:xlink="http://www.w3.org/1999/xlink" xmlns:svgjs="http://svgjs.com/svgjs" width="1920" height="1080" preserveAspectRatio="none" viewBox="0 0 1920 1080"><g mask="url(&quot;#SvgjsMask1016&quot;)" fill="none"><rect width="1920" height="1080" x="0" y="0" fill="#0e2a47"></rect><path d="M239.57 498.47L304.52 535.97L304.52 610.97L239.57 648.47L174.62 610.97L174.62 535.97zM174.62 610.97L239.57 648.47L239.57 723.47L174.62 760.97L109.66 723.47L109.66 648.47zM239.57 948.47L304.52 985.97L304.52 1060.97L239.57 1098.47L174.62 1060.97L174.62 985.97zM369.48 723.47L434.43 760.97L434.43 835.97L369.48 873.47L304.52 835.97L304.52 760.97zM499.39 498.47L564.34 535.97L564.34 610.97L499.39 648.47L434.43 610.97L434.43 535.97zM434.43 610.97L499.39 648.47L499.39 723.47L434.43 760.97L369.48 723.47L369.48 648.47zM499.39 723.47L564.34 760.97L564.34 835.97L499.39 873.47L434.43 835.97L434.43 760.97zM564.34 -64.03L629.29 -26.53L629.29 48.47L564.34 85.97L499.39 48.47L499.39 -26.53zM629.29 273.47L694.25 310.97L694.25 385.97L629.29 423.47L564.34 385.97L564.34 310.97zM759.2 48.47L824.16 85.97L824.16 160.97L759.2 198.47L694.25 160.97L694.25 85.97zM694.25 160.97L759.2 198.47L759.2 273.47L694.25 310.97L629.29 273.47L629.29 198.47zM759.2 498.47L824.16 535.97L824.16 610.97L759.2 648.47L694.25 610.97L694.25 535.97zM889.11 48.47L954.06 85.97L954.06 160.97L889.11 198.47L824.15 160.97L824.15 85.97zM824.15 385.97L889.11 423.47L889.11 498.47L824.15 535.97L759.2 498.47L759.2 423.47zM824.15 610.97L889.11 648.47L889.11 723.47L824.15 760.97L759.2 723.47L759.2 648.47zM889.11 723.47L954.06 760.97L954.06 835.97L889.11 873.47L824.15 835.97L824.15 760.97zM1019.02 48.47L1083.97 85.97L1083.97 160.97L1019.02 198.47L954.06 160.97L954.06 85.97zM1019.02 498.47L1083.97 535.97L1083.97 610.97L1019.02 648.47L954.06 610.97L954.06 535.97zM954.06 610.97L1019.02 648.47L1019.02 723.47L954.06 760.97L889.11 723.47L889.11 648.47zM1083.97 -64.03L1148.92 -26.53L1148.92 48.47L1083.97 85.97L1019.02 48.47L1019.02 -26.53zM1083.97 610.97L1148.92 648.47L1148.92 723.47L1083.97 760.97L1019.02 723.47L1019.02 648.47zM1213.88 160.97L1278.83 198.47L1278.83 273.47L1213.88 310.97L1148.92 273.47L1148.92 198.47zM1278.83 273.47L1343.78 310.97L1343.78 385.97L1278.83 423.47L1213.88 385.97L1213.88 310.97zM1213.88 610.97L1278.83 648.47L1278.83 723.47L1213.88 760.97L1148.92 723.47L1148.92 648.47zM1278.83 723.47L1343.78 760.97L1343.78 835.97L1278.83 873.47L1213.88 835.97L1213.88 760.97zM1408.74 273.47L1473.69 310.97L1473.69 385.97L1408.74 423.47L1343.79 385.97L1343.79 310.97zM1343.79 835.97L1408.74 873.47L1408.74 948.47L1343.79 985.97L1278.83 948.47L1278.83 873.47zM1408.74 948.47L1473.69 985.97L1473.69 1060.97L1408.74 1098.47L1343.79 1060.97L1343.79 985.97zM1343.79 1060.97L1408.74 1098.47L1408.74 1173.47L1343.79 1210.97L1278.83 1173.47L1278.83 1098.47zM1473.69 160.97L1538.65 198.47L1538.65 273.47L1473.69 310.97L1408.74 273.47L1408.74 198.47zM1538.65 273.47L1603.6 310.97L1603.6 385.97L1538.65 423.47L1473.69 385.97L1473.69 310.97zM1603.6 610.97L1668.55 648.47L1668.55 723.47L1603.6 760.97L1538.65 723.47L1538.65 648.47zM1733.51 385.97L1798.46 423.47L1798.46 498.47L1733.51 535.97L1668.55 498.47L1668.55 423.47zM1733.51 610.97L1798.46 648.47L1798.46 723.47L1733.51 760.97L1668.55 723.47L1668.55 648.47zM1733.51 835.97L1798.46 873.47L1798.46 948.47L1733.51 985.97L1668.55 948.47L1668.55 873.47zM1928.37 48.47L1993.32 85.97L1993.32 160.97L1928.37 198.47L1863.41 160.97L1863.41 85.97zM1863.41 160.97L1928.37 198.47L1928.37 273.47L1863.41 310.97L1798.46 273.47L1798.46 198.47zM1863.41 385.97L1928.37 423.47L1928.37 498.47L1863.41 535.97L1798.46 498.47L1798.46 423.47zM1928.37 498.47L1993.32 535.97L1993.32 610.97L1928.37 648.47L1863.41 610.97L1863.41 535.97zM1863.41 835.97L1928.37 873.47L1928.37 948.47L1863.41 985.97L1798.46 948.47L1798.46 873.47zM1928.37 948.47L1993.32 985.97L1993.32 1060.97L1928.37 1098.47L1863.41 1060.97L1863.41 985.97zM1863.41 1060.97L1928.37 1098.47L1928.37 1173.47L1863.41 1210.97L1798.46 1173.47L1798.46 1098.47z" stroke="#03305d" stroke-width="2"></path><path d="M232.07 498.47 a7.5 7.5 0 1 0 15 0 a7.5 7.5 0 1 0 -15 0zM297.02 535.97 a7.5 7.5 0 1 0 15 0 a7.5 7.5 0 1 0 -15 0zM297.02 610.97 a7.5 7.5 0 1 0 15 0 a7.5 7.5 0 1 0 -15 0zM232.07 648.47 a7.5 7.5 0 1 0 15 0 a7.5 7.5 0 1 0 -15 0zM167.12 610.97 a7.5 7.5 0 1 0 15 0 a7.5 7.5 0 1 0 -15 0zM167.12 535.97 a7.5 7.5 0 1 0 15 0 a7.5 7.5 0 1 0 -15 0zM232.07 723.47 a7.5 7.5 0 1 0 15 0 a7.5 7.5 0 1 0 -15 0zM167.12 760.97 a7.5 7.5 0 1 0 15 0 a7.5 7.5 0 1 0 -15 0zM102.16 723.47 a7.5 7.5 0 1 0 15 0 a7.5 7.5 0 1 0 -15 0zM102.16 648.47 a7.5 7.5 0 1 0 15 0 a7.5 7.5 0 1 0 -15 0zM232.07 948.47 a7.5 7.5 0 1 0 15 0 a7.5 7.5 0 1 0 -15 0zM297.02 985.97 a7.5 7.5 0 1 0 15 0 a7.5 7.5 0 1 0 -15 0zM297.02 1060.97 a7.5 7.5 0 1 0 15 0 a7.5 7.5 0 1 0 -15 0zM232.07 1098.47 a7.5 7.5 0 1 0 15 0 a7.5 7.5 0 1 0 -15 0zM167.12 1060.97 a7.5 7.5 0 1 0 15 0 a7.5 7.5 0 1 0 -15 0zM167.12 985.97 a7.5 7.5 0 1 0 15 0 a7.5 7.5 0 1 0 -15 0zM361.98 723.47 a7.5 7.5 0 1 0 15 0 a7.5 7.5 0 1 0 -15 0zM426.93 760.97 a7.5 7.5 0 1 0 15 0 a7.5 7.5 0 1 0 -15 0zM426.93 835.97 a7.5 7.5 0 1 0 15 0 a7.5 7.5 0 1 0 -15 0zM361.98 873.47 a7.5 7.5 0 1 0 15 0 a7.5 7.5 0 1 0 -15 0zM297.02 835.97 a7.5 7.5 0 1 0 15 0 a7.5 7.5 0 1 0 -15 0zM297.02 760.97 a7.5 7.5 0 1 0 15 0 a7.5 7.5 0 1 0 -15 0zM491.89 498.47 a7.5 7.5 0 1 0 15 0 a7.5 7.5 0 1 0 -15 0zM556.84 535.97 a7.5 7.5 0 1 0 15 0 a7.5 7.5 0 1 0 -15 0zM556.84 610.97 a7.5 7.5 0 1 0 15 0 a7.5 7.5 0 1 0 -15 0zM491.89 648.47 a7.5 7.5 0 1 0 15 0 a7.5 7.5 0 1 0 -15 0zM426.93 610.97 a7.5 7.5 0 1 0 15 0 a7.5 7.5 0 1 0 -15 0zM426.93 535.97 a7.5 7.5 0 1 0 15 0 a7.5 7.5 0 1 0 -15 0zM491.89 723.47 a7.5 7.5 0 1 0 15 0 a7.5 7.5 0 1 0 -15 0zM361.98 648.47 a7.5 7.5 0 1 0 15 0 a7.5 7.5 0 1 0 -15 0zM556.84 760.97 a7.5 7.5 0 1 0 15 0 a7.5 7.5 0 1 0 -15 0zM556.84 835.97 a7.5 7.5 0 1 0 15 0 a7.5 7.5 0 1 0 -15 0zM491.89 873.47 a7.5 7.5 0 1 0 15 0 a7.5 7.5 0 1 0 -15 0zM556.84 -64.03 a7.5 7.5 0 1 0 15 0 a7.5 7.5 0 1 0 -15 0zM621.79 -26.53 a7.5 7.5 0 1 0 15 0 a7.5 7.5 0 1 0 -15 0zM621.79 48.47 a7.5 7.5 0 1 0 15 0 a7.5 7.5 0 1 0 -15 0zM556.84 85.97 a7.5 7.5 0 1 0 15 0 a7.5 7.5 0 1 0 -15 0zM491.89 48.47 a7.5 7.5 0 1 0 15 0 a7.5 7.5 0 1 0 -15 0zM491.89 -26.53 a7.5 7.5 0 1 0 15 0 a7.5 7.5 0 1 0 -15 0zM621.79 273.47 a7.5 7.5 0 1 0 15 0 a7.5 7.5 0 1 0 -15 0zM686.75 310.97 a7.5 7.5 0 1 0 15 0 a7.5 7.5 0 1 0 -15 0zM686.75 385.97 a7.5 7.5 0 1 0 15 0 a7.5 7.5 0 1 0 -15 0zM621.79 423.47 a7.5 7.5 0 1 0 15 0 a7.5 7.5 0 1 0 -15 0zM556.84 385.97 a7.5 7.5 0 1 0 15 0 a7.5 7.5 0 1 0 -15 0zM556.84 310.97 a7.5 7.5 0 1 0 15 0 a7.5 7.5 0 1 0 -15 0zM751.7 48.47 a7.5 7.5 0 1 0 15 0 a7.5 7.5 0 1 0 -15 0zM816.66 85.97 a7.5 7.5 0 1 0 15 0 a7.5 7.5 0 1 0 -15 0zM816.66 160.97 a7.5 7.5 0 1 0 15 0 a7.5 7.5 0 1 0 -15 0zM751.7 198.47 a7.5 7.5 0 1 0 15 0 a7.5 7.5 0 1 0 -15 0zM686.75 160.97 a7.5 7.5 0 1 0 15 0 a7.5 7.5 0 1 0 -15 0zM686.75 85.97 a7.5 7.5 0 1 0 15 0 a7.5 7.5 0 1 0 -15 0zM751.7 273.47 a7.5 7.5 0 1 0 15 0 a7.5 7.5 0 1 0 -15 0zM621.79 198.47 a7.5 7.5 0 1 0 15 0 a7.5 7.5 0 1 0 -15 0zM751.7 498.47 a7.5 7.5 0 1 0 15 0 a7.5 7.5 0 1 0 -15 0zM816.66 535.97 a7.5 7.5 0 1 0 15 0 a7.5 7.5 0 1 0 -15 0zM816.66 610.97 a7.5 7.5 0 1 0 15 0 a7.5 7.5 0 1 0 -15 0zM751.7 648.47 a7.5 7.5 0 1 0 15 0 a7.5 7.5 0 1 0 -15 0zM686.75 610.97 a7.5 7.5 0 1 0 15 0 a7.5 7.5 0 1 0 -15 0zM686.75 535.97 a7.5 7.5 0 1 0 15 0 a7.5 7.5 0 1 0 -15 0zM881.61 48.47 a7.5 7.5 0 1 0 15 0 a7.5 7.5 0 1 0 -15 0zM946.56 85.97 a7.5 7.5 0 1 0 15 0 a7.5 7.5 0 1 0 -15 0zM946.56 160.97 a7.5 7.5 0 1 0 15 0 a7.5 7.5 0 1 0 -15 0zM881.61 198.47 a7.5 7.5 0 1 0 15 0 a7.5 7.5 0 1 0 -15 0zM816.65 160.97 a7.5 7.5 0 1 0 15 0 a7.5 7.5 0 1 0 -15 0zM816.65 85.97 a7.5 7.5 0 1 0 15 0 a7.5 7.5 0 1 0 -15 0zM816.65 385.97 a7.5 7.5 0 1 0 15 0 a7.5 7.5 0 1 0 -15 0zM881.61 423.47 a7.5 7.5 0 1 0 15 0 a7.5 7.5 0 1 0 -15 0zM881.61 498.47 a7.5 7.5 0 1 0 15 0 a7.5 7.5 0 1 0 -15 0zM816.65 535.97 a7.5 7.5 0 1 0 15 0 a7.5 7.5 0 1 0 -15 0zM751.7 423.47 a7.5 7.5 0 1 0 15 0 a7.5 7.5 0 1 0 -15 0zM816.65 610.97 a7.5 7.5 0 1 0 15 0 a7.5 7.5 0 1 0 -15 0zM881.61 648.47 a7.5 7.5 0 1 0 15 0 a7.5 7.5 0 1 0 -15 0zM881.61 723.47 a7.5 7.5 0 1 0 15 0 a7.5 7.5 0 1 0 -15 0zM816.65 760.97 a7.5 7.5 0 1 0 15 0 a7.5 7.5 0 1 0 -15 0zM751.7 723.47 a7.5 7.5 0 1 0 15 0 a7.5 7.5 0 1 0 -15 0zM946.56 760.97 a7.5 7.5 0 1 0 15 0 a7.5 7.5 0 1 0 -15 0zM946.56 835.97 a7.5 7.5 0 1 0 15 0 a7.5 7.5 0 1 0 -15 0zM881.61 873.47 a7.5 7.5 0 1 0 15 0 a7.5 7.5 0 1 0 -15 0zM816.65 835.97 a7.5 7.5 0 1 0 15 0 a7.5 7.5 0 1 0 -15 0zM1011.52 48.47 a7.5 7.5 0 1 0 15 0 a7.5 7.5 0 1 0 -15 0zM1076.47 85.97 a7.5 7.5 0 1 0 15 0 a7.5 7.5 0 1 0 -15 0zM1076.47 160.97 a7.5 7.5 0 1 0 15 0 a7.5 7.5 0 1 0 -15 0zM1011.52 198.47 a7.5 7.5 0 1 0 15 0 a7.5 7.5 0 1 0 -15 0zM1011.52 498.47 a7.5 7.5 0 1 0 15 0 a7.5 7.5 0 1 0 -15 0zM1076.47 535.97 a7.5 7.5 0 1 0 15 0 a7.5 7.5 0 1 0 -15 0zM1076.47 610.97 a7.5 7.5 0 1 0 15 0 a7.5 7.5 0 1 0 -15 0zM1011.52 648.47 a7.5 7.5 0 1 0 15 0 a7.5 7.5 0 1 0 -15 0zM946.56 610.97 a7.5 7.5 0 1 0 15 0 a7.5 7.5 0 1 0 -15 0zM946.56 535.97 a7.5 7.5 0 1 0 15 0 a7.5 7.5 0 1 0 -15 0zM1011.52 723.47 a7.5 7.5 0 1 0 15 0 a7.5 7.5 0 1 0 -15 0zM1076.47 -64.03 a7.5 7.5 0 1 0 15 0 a7.5 7.5 0 1 0 -15 0zM1141.42 -26.53 a7.5 7.5 0 1 0 15 0 a7.5 7.5 0 1 0 -15 0zM1141.42 48.47 a7.5 7.5 0 1 0 15 0 a7.5 7.5 0 1 0 -15 0zM1011.52 -26.53 a7.5 7.5 0 1 0 15 0 a7.5 7.5 0 1 0 -15 0zM1141.42 648.47 a7.5 7.5 0 1 0 15 0 a7.5 7.5 0 1 0 -15 0zM1141.42 723.47 a7.5 7.5 0 1 0 15 0 a7.5 7.5 0 1 0 -15 0zM1076.47 760.97 a7.5 7.5 0 1 0 15 0 a7.5 7.5 0 1 0 -15 0zM1206.38 160.97 a7.5 7.5 0 1 0 15 0 a7.5 7.5 0 1 0 -15 0zM1271.33 198.47 a7.5 7.5 0 1 0 15 0 a7.5 7.5 0 1 0 -15 0zM1271.33 273.47 a7.5 7.5 0 1 0 15 0 a7.5 7.5 0 1 0 -15 0zM1206.38 310.97 a7.5 7.5 0 1 0 15 0 a7.5 7.5 0 1 0 -15 0zM1141.42 273.47 a7.5 7.5 0 1 0 15 0 a7.5 7.5 0 1 0 -15 0zM1141.42 198.47 a7.5 7.5 0 1 0 15 0 a7.5 7.5 0 1 0 -15 0zM1336.28 310.97 a7.5 7.5 0 1 0 15 0 a7.5 7.5 0 1 0 -15 0zM1336.28 385.97 a7.5 7.5 0 1 0 15 0 a7.5 7.5 0 1 0 -15 0zM1271.33 423.47 a7.5 7.5 0 1 0 15 0 a7.5 7.5 0 1 0 -15 0zM1206.38 385.97 a7.5 7.5 0 1 0 15 0 a7.5 7.5 0 1 0 -15 0zM1206.38 610.97 a7.5 7.5 0 1 0 15 0 a7.5 7.5 0 1 0 -15 0zM1271.33 648.47 a7.5 7.5 0 1 0 15 0 a7.5 7.5 0 1 0 -15 0zM1271.33 723.47 a7.5 7.5 0 1 0 15 0 a7.5 7.5 0 1 0 -15 0zM1206.38 760.97 a7.5 7.5 0 1 0 15 0 a7.5 7.5 0 1 0 -15 0zM1336.28 760.97 a7.5 7.5 0 1 0 15 0 a7.5 7.5 0 1 0 -15 0zM1336.28 835.97 a7.5 7.5 0 1 0 15 0 a7.5 7.5 0 1 0 -15 0zM1271.33 873.47 a7.5 7.5 0 1 0 15 0 a7.5 7.5 0 1 0 -15 0zM1206.38 835.97 a7.5 7.5 0 1 0 15 0 a7.5 7.5 0 1 0 -15 0zM1401.24 273.47 a7.5 7.5 0 1 0 15 0 a7.5 7.5 0 1 0 -15 0zM1466.19 310.97 a7.5 7.5 0 1 0 15 0 a7.5 7.5 0 1 0 -15 0zM1466.19 385.97 a7.5 7.5 0 1 0 15 0 a7.5 7.5 0 1 0 -15 0zM1401.24 423.47 a7.5 7.5 0 1 0 15 0 a7.5 7.5 0 1 0 -15 0zM1336.29 385.97 a7.5 7.5 0 1 0 15 0 a7.5 7.5 0 1 0 -15 0zM1336.29 310.97 a7.5 7.5 0 1 0 15 0 a7.5 7.5 0 1 0 -15 0zM1336.29 835.97 a7.5 7.5 0 1 0 15 0 a7.5 7.5 0 1 0 -15 0zM1401.24 873.47 a7.5 7.5 0 1 0 15 0 a7.5 7.5 0 1 0 -15 0zM1401.24 948.47 a7.5 7.5 0 1 0 15 0 a7.5 7.5 0 1 0 -15 0zM1336.29 985.97 a7.5 7.5 0 1 0 15 0 a7.5 7.5 0 1 0 -15 0zM1271.33 948.47 a7.5 7.5 0 1 0 15 0 a7.5 7.5 0 1 0 -15 0zM1466.19 985.97 a7.5 7.5 0 1 0 15 0 a7.5 7.5 0 1 0 -15 0zM1466.19 1060.97 a7.5 7.5 0 1 0 15 0 a7.5 7.5 0 1 0 -15 0zM1401.24 1098.47 a7.5 7.5 0 1 0 15 0 a7.5 7.5 0 1 0 -15 0zM1336.29 1060.97 a7.5 7.5 0 1 0 15 0 a7.5 7.5 0 1 0 -15 0zM1401.24 1173.47 a7.5 7.5 0 1 0 15 0 a7.5 7.5 0 1 0 -15 0zM1336.29 1210.97 a7.5 7.5 0 1 0 15 0 a7.5 7.5 0 1 0 -15 0zM1271.33 1173.47 a7.5 7.5 0 1 0 15 0 a7.5 7.5 0 1 0 -15 0zM1271.33 1098.47 a7.5 7.5 0 1 0 15 0 a7.5 7.5 0 1 0 -15 0zM1466.19 160.97 a7.5 7.5 0 1 0 15 0 a7.5 7.5 0 1 0 -15 0zM1531.15 198.47 a7.5 7.5 0 1 0 15 0 a7.5 7.5 0 1 0 -15 0zM1531.15 273.47 a7.5 7.5 0 1 0 15 0 a7.5 7.5 0 1 0 -15 0zM1401.24 198.47 a7.5 7.5 0 1 0 15 0 a7.5 7.5 0 1 0 -15 0zM1596.1 310.97 a7.5 7.5 0 1 0 15 0 a7.5 7.5 0 1 0 -15 0zM1596.1 385.97 a7.5 7.5 0 1 0 15 0 a7.5 7.5 0 1 0 -15 0zM1531.15 423.47 a7.5 7.5 0 1 0 15 0 a7.5 7.5 0 1 0 -15 0zM1596.1 610.97 a7.5 7.5 0 1 0 15 0 a7.5 7.5 0 1 0 -15 0zM1661.05 648.47 a7.5 7.5 0 1 0 15 0 a7.5 7.5 0 1 0 -15 0zM1661.05 723.47 a7.5 7.5 0 1 0 15 0 a7.5 7.5 0 1 0 -15 0zM1596.1 760.97 a7.5 7.5 0 1 0 15 0 a7.5 7.5 0 1 0 -15 0zM1531.15 723.47 a7.5 7.5 0 1 0 15 0 a7.5 7.5 0 1 0 -15 0zM1531.15 648.47 a7.5 7.5 0 1 0 15 0 a7.5 7.5 0 1 0 -15 0zM1726.01 385.97 a7.5 7.5 0 1 0 15 0 a7.5 7.5 0 1 0 -15 0zM1790.96 423.47 a7.5 7.5 0 1 0 15 0 a7.5 7.5 0 1 0 -15 0zM1790.96 498.47 a7.5 7.5 0 1 0 15 0 a7.5 7.5 0 1 0 -15 0zM1726.01 535.97 a7.5 7.5 0 1 0 15 0 a7.5 7.5 0 1 0 -15 0zM1661.05 498.47 a7.5 7.5 0 1 0 15 0 a7.5 7.5 0 1 0 -15 0zM1661.05 423.47 a7.5 7.5 0 1 0 15 0 a7.5 7.5 0 1 0 -15 0zM1726.01 610.97 a7.5 7.5 0 1 0 15 0 a7.5 7.5 0 1 0 -15 0zM1790.96 648.47 a7.5 7.5 0 1 0 15 0 a7.5 7.5 0 1 0 -15 0zM1790.96 723.47 a7.5 7.5 0 1 0 15 0 a7.5 7.5 0 1 0 -15 0zM1726.01 760.97 a7.5 7.5 0 1 0 15 0 a7.5 7.5 0 1 0 -15 0zM1726.01 835.97 a7.5 7.5 0 1 0 15 0 a7.5 7.5 0 1 0 -15 0zM1790.96 873.47 a7.5 7.5 0 1 0 15 0 a7.5 7.5 0 1 0 -15 0zM1790.96 948.47 a7.5 7.5 0 1 0 15 0 a7.5 7.5 0 1 0 -15 0zM1726.01 985.97 a7.5 7.5 0 1 0 15 0 a7.5 7.5 0 1 0 -15 0zM1661.05 948.47 a7.5 7.5 0 1 0 15 0 a7.5 7.5 0 1 0 -15 0zM1661.05 873.47 a7.5 7.5 0 1 0 15 0 a7.5 7.5 0 1 0 -15 0zM1920.87 48.47 a7.5 7.5 0 1 0 15 0 a7.5 7.5 0 1 0 -15 0zM1985.82 85.97 a7.5 7.5 0 1 0 15 0 a7.5 7.5 0 1 0 -15 0zM1985.82 160.97 a7.5 7.5 0 1 0 15 0 a7.5 7.5 0 1 0 -15 0zM1920.87 198.47 a7.5 7.5 0 1 0 15 0 a7.5 7.5 0 1 0 -15 0zM1855.91 160.97 a7.5 7.5 0 1 0 15 0 a7.5 7.5 0 1 0 -15 0zM1855.91 85.97 a7.5 7.5 0 1 0 15 0 a7.5 7.5 0 1 0 -15 0zM1920.87 273.47 a7.5 7.5 0 1 0 15 0 a7.5 7.5 0 1 0 -15 0zM1855.91 310.97 a7.5 7.5 0 1 0 15 0 a7.5 7.5 0 1 0 -15 0zM1790.96 273.47 a7.5 7.5 0 1 0 15 0 a7.5 7.5 0 1 0 -15 0zM1790.96 198.47 a7.5 7.5 0 1 0 15 0 a7.5 7.5 0 1 0 -15 0zM1855.91 385.97 a7.5 7.5 0 1 0 15 0 a7.5 7.5 0 1 0 -15 0zM1920.87 423.47 a7.5 7.5 0 1 0 15 0 a7.5 7.5 0 1 0 -15 0zM1920.87 498.47 a7.5 7.5 0 1 0 15 0 a7.5 7.5 0 1 0 -15 0zM1855.91 535.97 a7.5 7.5 0 1 0 15 0 a7.5 7.5 0 1 0 -15 0zM1985.82 535.97 a7.5 7.5 0 1 0 15 0 a7.5 7.5 0 1 0 -15 0zM1985.82 610.97 a7.5 7.5 0 1 0 15 0 a7.5 7.5 0 1 0 -15 0zM1920.87 648.47 a7.5 7.5 0 1 0 15 0 a7.5 7.5 0 1 0 -15 0zM1855.91 610.97 a7.5 7.5 0 1 0 15 0 a7.5 7.5 0 1 0 -15 0zM1855.91 835.97 a7.5 7.5 0 1 0 15 0 a7.5 7.5 0 1 0 -15 0zM1920.87 873.47 a7.5 7.5 0 1 0 15 0 a7.5 7.5 0 1 0 -15 0zM1920.87 948.47 a7.5 7.5 0 1 0 15 0 a7.5 7.5 0 1 0 -15 0zM1855.91 985.97 a7.5 7.5 0 1 0 15 0 a7.5 7.5 0 1 0 -15 0zM1985.82 985.97 a7.5 7.5 0 1 0 15 0 a7.5 7.5 0 1 0 -15 0zM1985.82 1060.97 a7.5 7.5 0 1 0 15 0 a7.5 7.5 0 1 0 -15 0zM1920.87 1098.47 a7.5 7.5 0 1 0 15 0 a7.5 7.5 0 1 0 -15 0zM1855.91 1060.97 a7.5 7.5 0 1 0 15 0 a7.5 7.5 0 1 0 -15 0zM1920.87 1173.47 a7.5 7.5 0 1 0 15 0 a7.5 7.5 0 1 0 -15 0zM1855.91 1210.97 a7.5 7.5 0 1 0 15 0 a7.5 7.5 0 1 0 -15 0zM1790.96 1173.47 a7.5 7.5 0 1 0 15 0 a7.5 7.5 0 1 0 -15 0zM1790.96 1098.47 a7.5 7.5 0 1 0 15 0 a7.5 7.5 0 1 0 -15 0z" fill="#03305d"></path><path d="M85.49 183.01L128.8 208.01L128.8 258.01L85.49 283.01L42.19 258.01L42.19 208.01zM85.49 333.01L128.8 358.01L128.8 408.01L85.49 433.01L42.19 408.01L42.19 358.01zM42.19 558.01L85.49 583.01L85.49 633.01L42.19 658.01L-1.11 633.01L-1.11 583.01zM85.49 633.01L128.8 658.01L128.8 708.01L85.49 733.01L42.19 708.01L42.19 658.01zM42.19 708.01L85.49 733.01L85.49 783.01L42.19 808.01L-1.11 783.01L-1.11 733.01zM42.19 858.01L85.49 883.01L85.49 933.01L42.19 958.01L-1.11 933.01L-1.11 883.01zM128.8 108.01L172.1 133.01L172.1 183.01L128.8 208.01L85.49 183.01L85.49 133.01zM172.1 183.01L215.4 208.01L215.4 258.01L172.1 283.01L128.8 258.01L128.8 208.01zM172.1 333.01L215.4 358.01L215.4 408.01L172.1 433.01L128.8 408.01L128.8 358.01zM128.8 408.01L172.1 433.01L172.1 483.01L128.8 508.01L85.49 483.01L85.49 433.01zM128.8 558.01L172.1 583.01L172.1 633.01L128.8 658.01L85.49 633.01L85.49 583.01zM172.1 633.01L215.4 658.01L215.4 708.01L172.1 733.01L128.8 708.01L128.8 658.01zM128.8 708.01L172.1 733.01L172.1 783.01L128.8 808.01L85.49 783.01L85.49 733.01zM258.7 33.01L302 58.01L302 108.01L258.7 133.01L215.4 108.01L215.4 58.01zM258.7 183.01L302 208.01L302 258.01L258.7 283.01L215.4 258.01L215.4 208.01zM258.7 333.01L302 358.01L302 408.01L258.7 433.01L215.4 408.01L215.4 358.01zM258.7 483.01L302 508.01L302 558.01L258.7 583.01L215.4 558.01L215.4 508.01zM258.7 633.01L302 658.01L302 708.01L258.7 733.01L215.4 708.01L215.4 658.01zM215.4 708.01L258.7 733.01L258.7 783.01L215.4 808.01L172.1 783.01L172.1 733.01zM258.7 783.01L302 808.01L302 858.01L258.7 883.01L215.4 858.01L215.4 808.01zM215.4 1008.01L258.7 1033.01L258.7 1083.01L215.4 1108.01L172.1 1083.01L172.1 1033.01zM345.31 333.01L388.61 358.01L388.61 408.01L345.31 433.01L302 408.01L302 358.01zM302 558.01L345.31 583.01L345.31 633.01L302 658.01L258.7 633.01L258.7 583.01zM345.31 633.01L388.61 658.01L388.61 708.01L345.31 733.01L302 708.01L302 658.01zM302 708.01L345.31 733.01L345.31 783.01L302 808.01L258.7 783.01L258.7 733.01zM345.31 783.01L388.61 808.01L388.61 858.01L345.31 883.01L302 858.01L302 808.01zM345.31 933.01L388.61 958.01L388.61 1008.01L345.31 1033.01L302 1008.01L302 958.01zM431.91 33.01L475.22 58.01L475.22 108.01L431.91 133.01L388.61 108.01L388.61 58.01zM388.61 108.01L431.91 133.01L431.91 183.01L388.61 208.01L345.31 183.01L345.31 133.01zM388.61 408.01L431.91 433.01L431.91 483.01L388.61 508.01L345.31 483.01L345.31 433.01zM388.61 858.01L431.91 883.01L431.91 933.01L388.61 958.01L345.31 933.01L345.31 883.01zM431.91 933.01L475.22 958.01L475.22 1008.01L431.91 1033.01L388.61 1008.01L388.61 958.01zM388.61 1008.01L431.91 1033.01L431.91 1083.01L388.61 1108.01L345.31 1083.01L345.31 1033.01zM475.22 -41.99L518.52 -16.99L518.52 33.01L475.22 58.01L431.91 33.01L431.91 -16.99zM475.22 108.01L518.52 133.01L518.52 183.01L475.22 208.01L431.91 183.01L431.91 133.01zM518.52 183.01L561.82 208.01L561.82 258.01L518.52 283.01L475.22 258.01L475.22 208.01zM475.22 258.01L518.52 283.01L518.52 333.01L475.22 358.01L431.91 333.01L431.91 283.01zM518.52 333.01L561.82 358.01L561.82 408.01L518.52 433.01L475.22 408.01L475.22 358.01zM475.22 558.01L518.52 583.01L518.52 633.01L475.22 658.01L431.91 633.01L431.91 583.01zM518.52 783.01L561.82 808.01L561.82 858.01L518.52 883.01L475.22 858.01L475.22 808.01zM475.22 858.01L518.52 883.01L518.52 933.01L475.22 958.01L431.91 933.01L431.91 883.01zM518.52 933.01L561.82 958.01L561.82 1008.01L518.52 1033.01L475.22 1008.01L475.22 958.01zM475.22 1008.01L518.52 1033.01L518.52 1083.01L475.22 1108.01L431.91 1083.01L431.91 1033.01zM605.12 183.01L648.42 208.01L648.42 258.01L605.12 283.01L561.82 258.01L561.82 208.01zM561.82 258.01L605.12 283.01L605.12 333.01L561.82 358.01L518.52 333.01L518.52 283.01zM561.82 408.01L605.12 433.01L605.12 483.01L561.82 508.01L518.52 483.01L518.52 433.01zM561.82 708.01L605.12 733.01L605.12 783.01L561.82 808.01L518.52 783.01L518.52 733.01zM561.82 858.01L605.12 883.01L605.12 933.01L561.82 958.01L518.52 933.01L518.52 883.01zM561.82 1008.01L605.12 1033.01L605.12 1083.01L561.82 1108.01L518.52 1083.01L518.52 1033.01zM691.73 33.01L735.03 58.01L735.03 108.01L691.73 133.01L648.42 108.01L648.42 58.01zM691.73 333.01L735.03 358.01L735.03 408.01L691.73 433.01L648.42 408.01L648.42 358.01zM648.42 408.01L691.73 433.01L691.73 483.01L648.42 508.01L605.12 483.01L605.12 433.01zM691.73 483.01L735.03 508.01L735.03 558.01L691.73 583.01L648.42 558.01L648.42 508.01zM691.73 933.01L735.03 958.01L735.03 1008.01L691.73 1033.01L648.42 1008.01L648.42 958.01zM648.42 1008.01L691.73 1033.01L691.73 1083.01L648.42 1108.01L605.12 1083.01L605.12 1033.01zM778.33 183.01L821.63 208.01L821.63 258.01L778.33 283.01L735.03 258.01L735.03 208.01zM778.33 483.01L821.63 508.01L821.63 558.01L778.33 583.01L735.03 558.01L735.03 508.01zM735.03 708.01L778.33 733.01L778.33 783.01L735.03 808.01L691.73 783.01L691.73 733.01zM735.03 858.01L778.33 883.01L778.33 933.01L735.03 958.01L691.73 933.01L691.73 883.01zM735.03 1008.01L778.33 1033.01L778.33 1083.01L735.03 1108.01L691.73 1083.01L691.73 1033.01zM821.63 108.01L864.94 133.01L864.94 183.01L821.63 208.01L778.33 183.01L778.33 133.01zM821.63 258.01L864.94 283.01L864.94 333.01L821.63 358.01L778.33 333.01L778.33 283.01zM821.63 558.01L864.94 583.01L864.94 633.01L821.63 658.01L778.33 633.01L778.33 583.01zM864.94 633.01L908.24 658.01L908.24 708.01L864.94 733.01L821.63 708.01L821.63 658.01zM821.63 708.01L864.94 733.01L864.94 783.01L821.63 808.01L778.33 783.01L778.33 733.01zM908.24 -41.99L951.54 -16.99L951.54 33.01L908.24 58.01L864.94 33.01L864.94 -16.99zM951.54 33.01L994.85 58.01L994.85 108.01L951.54 133.01L908.24 108.01L908.24 58.01zM951.54 483.01L994.85 508.01L994.85 558.01L951.54 583.01L908.24 558.01L908.24 508.01zM951.54 933.01L994.85 958.01L994.85 1008.01L951.54 1033.01L908.24 1008.01L908.24 958.01zM908.24 1008.01L951.54 1033.01L951.54 1083.01L908.24 1108.01L864.94 1083.01L864.94 1033.01zM1038.15 183.01L1081.45 208.01L1081.45 258.01L1038.15 283.01L994.85 258.01L994.85 208.01zM994.85 258.01L1038.15 283.01L1038.15 333.01L994.85 358.01L951.54 333.01L951.54 283.01zM994.85 408.01L1038.15 433.01L1038.15 483.01L994.85 508.01L951.54 483.01L951.54 433.01zM1038.15 483.01L1081.45 508.01L1081.45 558.01L1038.15 583.01L994.85 558.01L994.85 508.01zM994.85 558.01L1038.15 583.01L1038.15 633.01L994.85 658.01L951.54 633.01L951.54 583.01zM1038.15 633.01L1081.45 658.01L1081.45 708.01L1038.15 733.01L994.85 708.01L994.85 658.01zM1038.15 783.01L1081.45 808.01L1081.45 858.01L1038.15 883.01L994.85 858.01L994.85 808.01zM994.85 1008.01L1038.15 1033.01L1038.15 1083.01L994.85 1108.01L951.54 1083.01L951.54 1033.01zM1124.75 33.01L1168.06 58.01L1168.06 108.01L1124.75 133.01L1081.45 108.01L1081.45 58.01zM1081.45 258.01L1124.75 283.01L1124.75 333.01L1081.45 358.01L1038.15 333.01L1038.15 283.01zM1124.75 333.01L1168.06 358.01L1168.06 408.01L1124.75 433.01L1081.45 408.01L1081.45 358.01zM1081.45 408.01L1124.75 433.01L1124.75 483.01L1081.45 508.01L1038.15 483.01L1038.15 433.01zM1081.45 558.01L1124.75 583.01L1124.75 633.01L1081.45 658.01L1038.15 633.01L1038.15 583.01zM1124.75 633.01L1168.06 658.01L1168.06 708.01L1124.75 733.01L1081.45 708.01L1081.45 658.01zM1081.45 708.01L1124.75 733.01L1124.75 783.01L1081.45 808.01L1038.15 783.01L1038.15 733.01zM1124.75 783.01L1168.06 808.01L1168.06 858.01L1124.75 883.01L1081.45 858.01L1081.45 808.01zM1081.45 858.01L1124.75 883.01L1124.75 933.01L1081.45 958.01L1038.15 933.01L1038.15 883.01zM1081.45 1008.01L1124.75 1033.01L1124.75 1083.01L1081.45 1108.01L1038.15 1083.01L1038.15 1033.01zM1211.36 933.01L1254.66 958.01L1254.66 1008.01L1211.36 1033.01L1168.06 1008.01L1168.06 958.01zM1254.66 258.01L1297.96 283.01L1297.96 333.01L1254.66 358.01L1211.36 333.01L1211.36 283.01zM1297.96 633.01L1341.27 658.01L1341.27 708.01L1297.96 733.01L1254.66 708.01L1254.66 658.01zM1297.96 783.01L1341.27 808.01L1341.27 858.01L1297.96 883.01L1254.66 858.01L1254.66 808.01zM1254.66 1008.01L1297.96 1033.01L1297.96 1083.01L1254.66 1108.01L1211.36 1083.01L1211.36 1033.01zM1384.57 33.01L1427.87 58.01L1427.87 108.01L1384.57 133.01L1341.27 108.01L1341.27 58.01zM1341.27 258.01L1384.57 283.01L1384.57 333.01L1341.27 358.01L1297.96 333.01L1297.96 283.01zM1384.57 333.01L1427.87 358.01L1427.87 408.01L1384.57 433.01L1341.27 408.01L1341.27 358.01zM1341.27 558.01L1384.57 583.01L1384.57 633.01L1341.27 658.01L1297.96 633.01L1297.96 583.01zM1384.57 633.01L1427.87 658.01L1427.87 708.01L1384.57 733.01L1341.27 708.01L1341.27 658.01zM1471.17 333.01L1514.48 358.01L1514.48 408.01L1471.17 433.01L1427.87 408.01L1427.87 358.01zM1427.87 408.01L1471.17 433.01L1471.17 483.01L1427.87 508.01L1384.57 483.01L1384.57 433.01zM1471.17 783.01L1514.48 808.01L1514.48 858.01L1471.17 883.01L1427.87 858.01L1427.87 808.01zM1514.48 108.01L1557.78 133.01L1557.78 183.01L1514.48 208.01L1471.17 183.01L1471.17 133.01zM1557.78 333.01L1601.08 358.01L1601.08 408.01L1557.78 433.01L1514.48 408.01L1514.48 358.01zM1514.48 408.01L1557.78 433.01L1557.78 483.01L1514.48 508.01L1471.17 483.01L1471.17 433.01zM1557.78 483.01L1601.08 508.01L1601.08 558.01L1557.78 583.01L1514.48 558.01L1514.48 508.01zM1514.48 558.01L1557.78 583.01L1557.78 633.01L1514.48 658.01L1471.17 633.01L1471.17 583.01zM1557.78 783.01L1601.08 808.01L1601.08 858.01L1557.78 883.01L1514.48 858.01L1514.48 808.01zM1514.48 1008.01L1557.78 1033.01L1557.78 1083.01L1514.48 1108.01L1471.17 1083.01L1471.17 1033.01zM1644.38 183.01L1687.69 208.01L1687.69 258.01L1644.38 283.01L1601.08 258.01L1601.08 208.01zM1644.38 333.01L1687.69 358.01L1687.69 408.01L1644.38 433.01L1601.08 408.01L1601.08 358.01zM1644.38 783.01L1687.69 808.01L1687.69 858.01L1644.38 883.01L1601.08 858.01L1601.08 808.01zM1644.38 933.01L1687.69 958.01L1687.69 1008.01L1644.38 1033.01L1601.08 1008.01L1601.08 958.01zM1687.69 -41.99L1730.99 -16.99L1730.99 33.01L1687.69 58.01L1644.38 33.01L1644.38 -16.99zM1730.99 33.01L1774.29 58.01L1774.29 108.01L1730.99 133.01L1687.69 108.01L1687.69 58.01zM1687.69 108.01L1730.99 133.01L1730.99 183.01L1687.69 208.01L1644.38 183.01L1644.38 133.01zM1730.99 183.01L1774.29 208.01L1774.29 258.01L1730.99 283.01L1687.69 258.01L1687.69 208.01zM1687.69 558.01L1730.99 583.01L1730.99 633.01L1687.69 658.01L1644.38 633.01L1644.38 583.01zM1730.99 633.01L1774.29 658.01L1774.29 708.01L1730.99 733.01L1687.69 708.01L1687.69 658.01zM1687.69 858.01L1730.99 883.01L1730.99 933.01L1687.69 958.01L1644.38 933.01L1644.38 883.01zM1774.29 -41.99L1817.59 -16.99L1817.59 33.01L1774.29 58.01L1730.99 33.01L1730.99 -16.99zM1774.29 858.01L1817.59 883.01L1817.59 933.01L1774.29 958.01L1730.99 933.01L1730.99 883.01zM1904.2 33.01L1947.5 58.01L1947.5 108.01L1904.2 133.01L1860.9 108.01L1860.9 58.01zM1860.9 258.01L1904.2 283.01L1904.2 333.01L1860.9 358.01L1817.59 333.01L1817.59 283.01zM1860.9 708.01L1904.2 733.01L1904.2 783.01L1860.9 808.01L1817.59 783.01L1817.59 733.01zM1904.2 933.01L1947.5 958.01L1947.5 1008.01L1904.2 1033.01L1860.9 1008.01L1860.9 958.01zM1990.8 183.01L2034.11 208.01L2034.11 258.01L1990.8 283.01L1947.5 258.01L1947.5 208.01zM1990.8 483.01L2034.11 508.01L2034.11 558.01L1990.8 583.01L1947.5 558.01L1947.5 508.01zM1947.5 708.01L1990.8 733.01L1990.8 783.01L1947.5 808.01L1904.2 783.01L1904.2 733.01zM1990.8 933.01L2034.11 958.01L2034.11 1008.01L1990.8 1033.01L1947.5 1008.01L1947.5 958.01zM1947.5 1008.01L1990.8 1033.01L1990.8 1083.01L1947.5 1108.01L1904.2 1083.01L1904.2 1033.01z" stroke="rgba(6, 80, 156, 0.93)" stroke-width="2"></path></g><defs><mask id="SvgjsMask1016"><rect width="1920" height="1080" fill="#ffffff"></rect></mask></defs></svg>